# xmcd
#
# Track frame offsets:
#	151
#	12975
#	25693
#	38250
#	51501
#	63810
#	76748
#	88403
#	101037
#	114141
#	126448
#	139260
#	151115
#	164455
#	177939
#	191030
#	203553
#	216221
#	229597
#	242450
#	254502
#	267120
#	280393
#	293290
#	306711
#
# Disc length: 4258 seconds
#
# Revision: 1
# Processed by: cddbd v1.5.2PL0 Copyright (c) Steve Scherf et al.
# Submitted via: audiograbber 1.83.01
#
DISCID=5810a019
DTITLE=hank williams sr - honky tonkin'
DYEAR=1900
DGENRE=
TTITLE0=move it on over
TTITLE1=rootie tootie
TTITLE2=lovesick blues
TTITLE3=wedding bells
TTITLE4=lost highway
TTITLE5=honky tonkin'
TTITLE6=my bucket's got a hole in it
TTITLE7=i'm so lonesome i could cry
TTITLE8=i'm a long gone daddy
TTITLE9=never again (will i knock on your door)
TTITLE10=six more miles (to the graveyard)
TTITLE11=a mansion on the hill
TTITLE12=mind your own business
TTITLE13=you're gonna change (or i'm gonna leave)
TTITLE14=i can't get you out of my mind
TTITLE15=(last night) i heard you crying in your sleep
TTITLE16=fly trouble
TTITLE17=i've just told mamma goodbye
TTITLE18=there'll be no teardrops tonight
TTITLE19=i'll be a bachelor 'til i die
TTITLE20=my sweet love ain't around
TTITLE21=on the banks of the old pontchartrain
TTITLE22=i don't care (if tomorrow never comes)
TTITLE23=calling you
TTITLE24=i saw the light
EXTD=
EXTT0=
EXTT1=
EXTT2=
EXTT3=
EXTT4=
EXTT5=
EXTT6=
EXTT7=
EXTT8=
EXTT9=
EXTT10=
EXTT11=
EXTT12=
EXTT13=
EXTT14=
EXTT15=
EXTT16=
EXTT17=
EXTT18=
EXTT19=
EXTT20=
EXTT21=
EXTT22=
EXTT23=
EXTT24=
PLAYORDER=
